<?xml version="1.0" encoding="utf-8" standalone="yes"?>
<!DOCTYPE svg PUBLIC "-//W3C//DTD SVG 1.1//EN" "http://www.w3.org/Graphics/SVG/1.1/DTD/svg11.dtd">
<svg width="98" height="98" viewBox="0 0 98 98" style="fill:none;stroke:none;fill-rule:evenodd;clip-rule:evenodd;stroke-linecap:round;stroke-linejoin:round;stroke-miterlimit:1.5;" version="1.1" xmlns="http://www.w3.org/2000/svg" xmlns:xlink="http://www.w3.org/1999/xlink"><g id="items" style="isolation: isolate"><g id="blend" style="mix-blend-mode: normal"><g id="g-root-targ_1upa2ap1d5iya1-fill" data-item-order="0" transform="translate(3, 3)"></g><g id="g-root-targ_1upa2ap1d5iya1-stroke" data-item-order="0" transform="translate(3, 3)"><g id="targ_1upa2ap1d5iya1-stroke" fill="none" stroke-linecap="round" stroke-linejoin="round" stroke-miterlimit="4" stroke="#f4f4f4" stroke-width="2"><g><path d="M 58.600002 80.5C 58.300003 79.899994 58.899998 79 58.600002 78.100006C 58 72.399994 53.800003 67.600006 48.400002 67.899994C 42.699997 68.199997 38.800003 72.399994 37.900002 78.100006C 37.599998 79 38.199997 79.600006 37.900002 80.5M 42.400002 56.5C 43 59.800003 45.400002 61.899998 48.400002 62.5C 51.699997 63.100002 53.199997 59.5 54.400002 56.5C 55.599998 53.800003 51.699997 52 48.400002 50.800003C 45.400002 49.599998 43 53.5 42.400002 56.5M 79.600006 80.5C 79.899994 79.600006 79.600006 79 79.600006 78.100006C 78.699997 72.399994 74.800003 69.100006 69.100006 67.899994C 63.699997 67 58.300003 72.399994 58.600002 78.100006C 58.899998 79 58.600002 79.600006 58.600002 80.5M 63.399998 56.5C 62.199997 59.5 66.100006 63.399998 69.399994 62.5C 72.399994 61.600002 76 59.800003 75.399994 56.5C 74.5 53.5 72.699997 50.800003 69.399994 50.800003C 66.100006 51.099998 62.800003 53.5 63.399998 56.5M 52.900002 11.5C 61 12.4 69.100006 13.9 76.899994 11.5C 78.399994 10.9 79.300003 13 79.899994 14.5C 82 20.799999 79 28 79.899994 34.599998C 80.199997 36.099998 78.399994 37.900002 76.899994 37.599998C 68.199997 36.099998 59.199997 35.5 50.5 37.599998M 60.399998 22.599998C 61.899998 24.099998 62.5 26.200001 64.300003 27.400002C 65.800003 25.900002 67.600006 24.700001 69.699997 24.400002C 70.899994 25.299999 71.5 27.099998 72.399994 28.599998M 16.6 19.299999C 16.299999 23.799999 20.200001 26.799999 24.400002 27.099998C 28.900002 27.700001 33.400002 23.5 32.5 19.299999C 31.599998 15.1 28.599998 12.7 24.400002 11.5C 20.5 10.3 17.5 15.1 16.6 19.299999M 35.199997 54.099998C 35.199997 51.699997 34.300003 49 35.199997 46.599998C 40 38.800003 44.5 30.099998 52 25C 54.099998 23.200001 53.199997 19.299999 50.800003 17.799999C 48.699997 16.299999 44.800003 16 43.900002 18.700001C 42.400002 23.5 37.300003 26.200001 34.900002 30.400002C 34.300003 31.299999 33.099998 31.599998 32.200001 31.599998C 28.900002 31.599998 25.599998 32.5 22.299999 31.599998C 19.6 31 16.6 32.5 15.1 34.599998C 13.6 37 12.7 39.099998 12.1 41.800003C 11.2 45.699997 11.8 49.900002 12.1 53.800003M 74.199997 37.599998C 74.5 39.400002 74.800003 41.5 74.199997 43.300003M 24.700001 38.5C 24.099998 40 25 41.800003 24.700001 43.300003"></path><path d="M 58.720001 80.5L 58.720001 78.049004C 58.507385 72.444397 53.902134 68.010536 48.293499 68.010536C 42.684864 68.010536 38.079617 72.444397 37.866997 78.049004L 37.866997 80.5M 42.499001 56.640999C 42.497974 59.841087 45.18322 62.435791 48.495995 62.435791C 51.808777 62.435791 54.494022 59.841087 54.492996 56.640999C 54.494022 53.44091 51.808777 50.846203 48.495995 50.846203C 45.18322 50.846203 42.497974 53.44091 42.498997 56.640999M 79.575996 80.5L 79.575996 78.049004C 79.385277 72.427406 74.772827 67.968788 69.147995 67.968788C 63.52317 67.968788 58.910721 72.427406 58.720001 78.049004L 58.720001 80.5M 63.352001 56.640999C 63.350971 59.841087 66.036217 62.435791 69.348999 62.435791C 72.661774 62.435791 75.347023 59.841087 75.345993 56.640999C 75.347023 53.44091 72.661774 50.846203 69.348999 50.846203C 66.036217 50.846203 63.350971 53.44091 63.351997 56.640999M 52.980999 11.5L 76.813004 11.5C 78.50679 11.499999 79.880348 12.87221 79.882004 14.566L 79.882004 34.500999C 79.880348 36.19479 78.50679 37.567001 76.813004 37.567001L 50.529999 37.567001M 60.522999 22.729L 64.393005 27.327999L 69.553001 24.262001L 72.336998 28.677999M 16.717001 19.333C 16.715933 23.659801 20.223198 27.167931 24.549999 27.167931C 28.876801 27.167931 32.384068 23.659801 32.382999 19.333C 32.384068 15.006199 28.876801 11.498069 24.549999 11.498069C 20.223198 11.498069 16.715933 15.006199 16.717001 19.333M 35.302002 53.956001L 35.302002 46.695999L 35.302002 46.695999L 51.855999 25.042L 51.937 24.940001C 53.566681 22.707508 53.11462 19.582088 50.919151 17.902866C 48.723682 16.223642 45.588932 16.605656 43.861 18.763L 34.827999 30.367001C 34.186607 31.185757 33.204071 31.66375 32.164001 31.662998L 22.299999 31.663C 19.601223 31.658222 17.011343 32.726959 15.101328 34.633598C 13.191314 36.540234 12.117996 39.12822 12.118 41.827L 12.118 53.695M 74.118996 37.567001L 74.118996 43.153M 24.549999 38.532997L 24.549999 43.153"></path></g></g></g></g></g></svg>