<?xml version="1.0" encoding="utf-8" standalone="yes"?>
<!DOCTYPE svg PUBLIC "-//W3C//DTD SVG 1.1//EN" "http://www.w3.org/Graphics/SVG/1.1/DTD/svg11.dtd">
<svg width="95" height="95" viewBox="0 0 95 95" style="fill:none;stroke:none;fill-rule:evenodd;clip-rule:evenodd;stroke-linecap:round;stroke-linejoin:round;stroke-miterlimit:1.5;" version="1.1" xmlns="http://www.w3.org/2000/svg" xmlns:xlink="http://www.w3.org/1999/xlink"><g id="items" style="isolation: isolate"><g id="blend" style="mix-blend-mode: normal"><g id="g-root-1_hva1wx1fn5fcx-fill" data-item-order="0" transform="translate(3, 3)"></g><g id="g-root-1_hva1wx1fn5fcx-stroke" data-item-order="0" transform="translate(3, 3)"><g id="1_hva1wx1fn5fcx-stroke" fill="none" stroke-linecap="round" stroke-linejoin="round" stroke-miterlimit="4" stroke="#f4f4f4" stroke-width="2"><g><path d="M 19.401564 40.768753C 20.25625 47.321362 24.814585 51.025005 31.367191 52.734383C 37.919796 54.443756 44.472401 47.321362 43.617714 40.768753C 42.47813 33.931252 37.634899 31.082294 31.367191 28.518232C 25.099482 25.954168 18.831772 33.931252 19.401564 40.768753M 11.424479 76.950531C 13.133855 66.124489 20.826042 59.57188 31.367191 57.00782C 41.908337 54.443756 49.600525 66.124489 51.309902 76.950531C 38.204689 78.375008 24.814585 78.090111 11.424479 76.950531M 49.885422 41.908337C 51.025005 43.617714 53.589069 44.472401 55.58334 44.187504C 58.432297 44.187504 61.566154 42.763027 62.705738 39.914066C 82.363548 43.617714 80.939072 11.139584 62.420841 11.424479C 58.717194 10.854688 55.868237 13.703647 52.734383 15.697918C 49.885422 13.703647 45.042194 12.848959 42.193233 15.413021C 39.344276 17.692188 36.780212 19.68646 35.070839 22.820314M 55.58334 52.734383C 55.01355 54.158859 57.00782 55.58334 58.432297 55.58334C 59.856777 55.298443 60.996361 54.158859 61.281258 52.734383C 61.566154 51.309902 59.856777 50.455212 58.432297 49.885422C 57.00782 49.315632 55.868237 51.025005 55.58334 52.734383M 65.554695 26.523962C 65.839592 26.239065 66.409378 26.808857 66.409378 27.093752C 66.124489 27.378649 65.839592 27.663544 65.554695 27.948441C 65.269798 27.948441 64.700012 27.378649 64.984901 27.093752C 64.984901 26.808857 65.269798 26.523962 65.554695 26.523962M 65.554695 26.523962M 57.00782 26.523962C 57.292717 26.239065 57.862503 26.808857 57.862503 27.093752C 57.577614 27.378649 57.292717 27.948441 57.00782 27.948441C 56.722923 27.663544 56.153133 27.378649 56.438026 27.093752C 56.438026 26.808857 56.722923 26.523962 57.00782 26.523962M 57.00782 26.523962M 48.460941 26.523962C 48.745838 26.523962 49.315632 26.808857 49.315632 27.093752C 49.315632 27.378649 48.745838 27.948441 48.460941 27.948441C 48.176044 27.663544 47.606255 27.378649 47.891151 27.093752C 47.891151 26.808857 48.176044 26.523962 48.460941 26.523962M 48.460941 26.523962M 48.460941 56.438026C 48.745838 56.153133 49.030735 56.722923 49.315632 57.00782C 49.315632 57.292717 48.745838 57.577614 48.460941 57.862503C 48.176044 57.862503 47.891151 57.292717 47.891151 57.00782C 47.606255 56.722923 48.176044 56.153133 48.460941 56.438026M 48.460941 56.438026"></path><path d="M 19.264814 40.626305C 19.264814 47.313412 24.685783 52.734383 31.372889 52.734383C 38.059994 52.734383 43.480961 47.313412 43.480961 40.626305C 43.480961 33.939201 38.059994 28.518232 31.372889 28.518232C 24.685783 28.518232 19.264814 33.939201 19.264814 40.626305M 11.424479 76.950531C 11.42448 65.936478 20.353136 57.007824 31.367191 57.007824C 42.381245 57.007824 51.309902 65.936478 51.309902 76.950539ZM 49.885422 41.908337C 51.40831 43.392105 53.457272 44.211685 55.58334 44.187504C 58.50618 43.990097 61.156097 42.400146 62.705738 39.914066C 82.648445 39.914066 80.862144 11.424479 62.420841 11.424479C 58.724461 11.373797 55.188866 12.933619 52.734383 15.697918C 49.455044 14.088443 45.647083 13.944781 42.255802 15.302597C 38.864521 16.660414 36.20792 19.392384 34.94548 22.820314M 55.577641 52.734383C 55.577641 54.307819 56.853165 55.58334 58.426598 55.58334C 60.000038 55.58334 61.275558 54.307819 61.275558 52.734383C 61.275558 51.160942 60.000038 49.885422 58.426598 49.885422C 56.853165 49.885422 55.577641 51.160942 55.577641 52.734383M 65.554695 26.381514C 65.948051 26.381514 66.266937 26.700394 66.266937 27.093752L 66.266937 27.093752C 66.266937 27.487112 65.948051 27.805992 65.554695 27.805992L 65.554695 27.805992C 65.161339 27.805992 64.842453 27.487112 64.842453 27.093752L 64.842453 27.093752C 64.842453 26.700394 65.161339 26.381514 65.554695 26.381514M 65.548996 26.381514L 65.548996 26.381514M 57.00782 26.381514C 57.401176 26.381514 57.720058 26.700394 57.720058 27.093752L 57.720058 27.093752C 57.720058 27.487112 57.401176 27.805992 57.00782 27.805992L 57.00782 27.805992C 56.61446 27.805992 56.295578 27.487112 56.295578 27.093752L 56.295578 27.093752C 56.295578 26.700394 56.61446 26.381514 57.00782 26.381514M 57.002117 26.381514L 57.002117 26.381514M 48.460941 26.381514C 48.854301 26.381514 49.173183 26.700394 49.173183 27.093752L 49.173183 27.093752C 49.173183 27.487112 48.854301 27.805992 48.460941 27.805992L 48.460941 27.805992C 48.067585 27.805992 47.748703 27.487112 47.748703 27.093752L 47.748703 27.093752C 47.748703 26.700394 48.067585 26.381514 48.460941 26.381514M 48.455246 26.381514L 48.455246 26.381514M 48.460941 56.295578C 48.854301 56.295578 49.173183 56.61446 49.173183 57.00782L 49.173183 57.00782C 49.173183 57.401176 48.854301 57.720058 48.460941 57.720058L 48.460941 57.720058C 48.067585 57.720058 47.748703 57.401176 47.748703 57.00782L 47.748703 57.00782C 47.748703 56.61446 48.067585 56.295578 48.460941 56.295578M 48.455246 56.295578L 48.455246 56.295578"></path></g></g></g></g></g></svg>