<?xml version="1.0" encoding="utf-8" standalone="yes"?>
<!DOCTYPE svg PUBLIC "-//W3C//DTD SVG 1.1//EN" "http://www.w3.org/Graphics/SVG/1.1/DTD/svg11.dtd">
<svg width="98" height="98" viewBox="0 0 98 98" style="fill:none;stroke:none;fill-rule:evenodd;clip-rule:evenodd;stroke-linecap:round;stroke-linejoin:round;stroke-miterlimit:1.5;" version="1.1" xmlns="http://www.w3.org/2000/svg" xmlns:xlink="http://www.w3.org/1999/xlink"><g id="items" style="isolation: isolate"><g id="blend" style="mix-blend-mode: normal"><g id="g-root-1_1ur5hjm1dpi4g2-fill" data-item-order="0" transform="translate(3, 3)"></g><g id="g-root-1_1ur5hjm1dpi4g2-stroke" data-item-order="0" transform="translate(3, 3)"><g id="1_1ur5hjm1dpi4g2-stroke" fill="none" stroke-linecap="round" stroke-linejoin="round" stroke-miterlimit="4" stroke="#f4f4f4" stroke-width="2"><g><path d="M 31.054003 63.250004C 28.078037 67.685844 26.492477 72.908379 26.500002 78.250008L 80.500008 78.250008C 80.500008 63.338318 68.41169 51.250004 53.500004 51.250004M 47.500004 54.250004C 47.500004 55.90686 46.15686 57.250004 44.500004 57.250004L 14.5 57.250004C 12.843146 57.250004 11.5 55.90686 11.5 54.250004L 11.5 36.250004C 11.5 34.593147 12.843146 33.25 14.5 33.25L 26.500002 33.25C 27.340002 31.570002 27.853003 30.250002 29.854002 30.250002L 36.646004 30.250002C 38.647003 30.250002 39.160004 31.570002 40.000004 33.25L 44.500004 33.25C 46.15686 33.25 47.500004 34.593147 47.500004 36.250004ZM 26.500002 43.750004C 26.500002 47.063713 29.186293 49.750004 32.5 49.750004C 35.813709 49.750004 38.500004 47.063713 38.500004 43.750004C 38.500004 40.436295 35.813709 37.750004 32.5 37.750004C 29.186293 37.750004 26.500002 40.436295 26.500002 43.750004ZM 16 27.250002L 17.5 27.250002M 53.500004 46.750004C 61.824917 46.756779 68.850922 40.560951 69.885513 32.300571C 70.920105 24.040192 65.639183 16.302954 57.569748 14.256375C 49.500317 12.209797 41.17025 16.495001 38.143005 24.250002"></path></g></g></g></g></g></svg>