<?xml version="1.0" encoding="utf-8" standalone="yes"?>
<!DOCTYPE svg PUBLIC "-//W3C//DTD SVG 1.1//EN" "http://www.w3.org/Graphics/SVG/1.1/DTD/svg11.dtd">
<svg width="98" height="98" viewBox="0 0 98 98" style="fill:none;stroke:none;fill-rule:evenodd;clip-rule:evenodd;stroke-linecap:round;stroke-linejoin:round;stroke-miterlimit:1.5;" version="1.1" xmlns="http://www.w3.org/2000/svg" xmlns:xlink="http://www.w3.org/1999/xlink"><g id="items" style="isolation: isolate"><g id="blend" style="mix-blend-mode: normal"><g id="g-root-1_1lw580f1adejv2-fill" data-item-order="0" transform="translate(3, 3)"></g><g id="g-root-1_1lw580f1adejv2-stroke" data-item-order="0" transform="translate(3, 3)"><g id="1_1lw580f1adejv2-stroke" fill="none" stroke-linecap="round" stroke-linejoin="round" stroke-miterlimit="4" stroke="#f4f4f4" stroke-width="2"><g><path d="M 20.200001 53.199997C 19.9 57.099998 23.200001 59.5 26.799999 60.100002C 30.400002 60.699997 32.799999 57.099998 33.700001 53.199997C 34.300003 49.599998 30.400002 45.699997 26.799999 46.599998C 23.200001 47.800003 19.9 49.599998 20.200001 53.199997M 37.900002 71.199997C 35.5 67 31.900002 62.5 26.799999 63.399998C 22 64.300003 19 67.300003 15.7 70.899994M 57.699997 53.199997C 57.400002 57.099998 61 61.300003 64.600006 60.100002C 68.199997 58.899998 71.199997 57.099998 71.199997 53.199997C 71.199997 49.599998 68.199997 47.199997 64.600006 46.599998C 60.699997 46 56.800003 49.900002 57.699997 53.199997M 75.100006 70.300003C 74.800003 66.100006 69.399994 65.199997 65.800003 63.399998C 64.600006 63.100002 63.399998 63.399998 62.5 63.699997M 13 76.899994C 34.900002 75.399994 57.099998 76.300003 79 76.899994M 66.699997 76.899994C 60.399998 77.800003 53.800003 75.399994 47.199997 76.899994C 46.900002 73 45.699997 69.100006 44.800003 65.199997C 44.5 64.899994 44.800003 64.300003 45.099998 64C 45.400002 63.699997 45.699997 63.399998 46.300003 63.399998C 51.099998 62.5 56.5 65.199997 61.300003 63.399998C 62.800003 62.800003 64.300003 64.300003 64.300003 65.800003C 64 69.699997 66.100006 73.300003 66.699997 76.899994M 44.5 15.1C 44.199997 19 43.300003 23.200001 44.5 27.099998M 38.5 36.099998C 37.900002 33.099998 39.099998 30.099998 40 27.099998C 43 26.799999 46 28 49 27.099998C 48.699997 30.099998 49.300003 33.400002 50.5 36.099998C 46.599998 36.099998 42.400002 37.300003 38.5 36.099998M 54.099998 70.300003C 54.400002 70.899994 54.699997 71.199997 55.300003 71.199997C 55.900002 71.199997 56.5 70.899994 56.199997 70.300003C 56.199997 69.699997 55.900002 69.100006 55.300003 69.100006C 54.699997 69.100006 54.099998 69.699997 54.099998 70.300003M 59.800003 48.699997C 62.800003 51.699997 67 53.800003 71.199997 53.199997M 31.599998 48.699997C 28.900002 52 24.400002 52.599998 20.200001 53.199997"></path><path d="M 20.083 53.344002C 20.083 57.066952 23.101049 60.084999 26.824001 60.084999C 30.546951 60.084999 33.564999 57.066952 33.564999 53.344002C 33.564999 49.621052 30.546951 46.603001 26.824001 46.603001C 23.101049 46.603001 20.083 49.621052 20.083 53.344002M 37.927002 71.257004C 36.256943 66.615509 31.875759 63.502785 26.943199 63.453281C 22.010639 63.403786 17.567869 66.427956 15.805 71.035004M 57.792999 53.344002C 57.793003 57.066952 60.81105 60.084999 64.533997 60.084999C 68.25695 60.084999 71.275002 57.066952 71.275002 53.344002C 71.275002 49.621052 68.25695 46.603001 64.533997 46.603001C 60.81105 46.603001 57.793003 49.621052 57.793003 53.344002M 75.186996 70.18C 73.376411 66.462692 69.779602 63.939377 65.667999 63.501999C 64.607674 63.418335 63.541008 63.470764 62.493996 63.657997M 13 76.932999L 79 76.932999M 66.772003 76.932999L 47.313999 76.932999L 44.722 65.257004C 44.623802 64.81311 44.732216 64.348625 45.016788 63.994083C 45.301361 63.639534 45.731373 63.433182 46.186001 63.433002L 61.365997 63.433002C 62.771828 63.433243 63.988934 64.409676 64.293999 65.781998ZM 44.5 15.067L 44.5 27.067001M 38.5 36.067001L 40 27.067001L 49 27.067001L 50.5 36.067001L 38.5 36.067001ZM 54.082001 70.182999C 54.082001 70.804321 54.585682 71.307999 55.207001 71.307999C 55.82832 71.307999 56.332001 70.804321 56.332001 70.182999C 56.332001 69.561676 55.82832 69.057999 55.207001 69.057999C 54.585682 69.057999 54.082001 69.561676 54.082001 70.182999M 59.725002 48.625C 62.685314 51.832085 66.915878 53.560574 71.275002 53.344002M 31.632999 48.625C 28.672688 51.832085 24.442122 53.560574 20.083 53.344002"></path></g></g></g></g></g></svg>