<?xml version="1.0" encoding="utf-8" standalone="yes"?>
<!DOCTYPE svg PUBLIC "-//W3C//DTD SVG 1.1//EN" "http://www.w3.org/Graphics/SVG/1.1/DTD/svg11.dtd">
<svg width="92" height="92" viewBox="0 0 92 92" style="fill:none;stroke:none;fill-rule:evenodd;clip-rule:evenodd;stroke-linecap:round;stroke-linejoin:round;stroke-miterlimit:1.5;" version="1.1" xmlns="http://www.w3.org/2000/svg" xmlns:xlink="http://www.w3.org/1999/xlink"><g id="items" style="isolation: isolate"><g id="blend" style="mix-blend-mode: normal"><g id="g-root-targ_4m2up1ejjp4y-fill" data-item-order="0" transform="translate(3, 3)"></g><g id="g-root-targ_4m2up1ejjp4y-stroke" data-item-order="0" transform="translate(3, 3)"><g id="targ_4m2up1ejjp4y-stroke" fill="none" stroke-linecap="round" stroke-linejoin="round" stroke-miterlimit="4" stroke="#f4f4f4" stroke-width="2"><g><path d="M 56.749996 56.749996C 56.749996 59.774998 59.499996 61.699993 62.524998 62.524998C 65.549995 63.349995 68.024994 59.774998 68.299995 56.749996C 68.574989 53.724995 65.549995 50.149998 62.524998 50.974995C 59.499996 52.074997 56.749996 53.724995 56.749996 56.749996M 58.674999 74.074989C 63.899998 73.799995 69.124992 75.449989 74.074989 74.074989C 74.074989 70.224991 69.949989 68.574989 67.199989 66.099991C 64.449997 63.349995 60.049999 65.274994 56.749996 66.649994M 17.699999 56.749996C 17.424999 59.774998 20.449999 63.074993 23.474998 62.524998C 26.499998 61.974995 29.524998 59.774998 29.249998 56.749996C 28.699999 53.724995 26.499998 51.524998 23.474998 50.974995C 20.449999 50.424995 18.799999 53.724995 17.699999 56.749996M 27.049997 74.074989C 22.099998 74.074989 17.15 73.799995 11.925 74.074989C 11.925 70.224991 15.5 67.749992 18.799999 66.099991C 22.099998 64.174995 25.674997 66.099991 29.249998 66.649994M 57.024998 74.074989C 58.124996 69.124992 53.449997 65.274994 50.149998 61.699993C 46.574997 57.849995 40.249996 59.224995 35.849998 61.699993C 31.449999 64.174995 29.524998 68.849991 28.974998 73.799995C 38.324997 74.624992 47.674995 73.799995 57.024998 74.074989M 35.574997 43.549995C 39.424995 47.949997 46.024998 49.599995 50.974995 46.849995M 34.474998 47.949997C 35.024998 52.349995 38.324997 56.474995 42.724995 56.199993C 47.399998 55.649998 49.874996 52.349995 50.974995 47.949997C 52.349995 43.549995 47.124996 37.774998 42.724995 39.699997C 38.599995 41.349995 33.924999 43.274998 34.474998 47.949997M 60.874996 45.199997C 60.874996 45.199997 50.699997 36.674995 52.624996 30.074999C 56.749996 28.974998 60.874996 30.074999 64.999992 30.074999C 57.574993 24.299997 51.524998 16.324999 42.999996 12.2C 36.674995 19.074999 28.424997 24.024998 21 30.074999C 24.849998 28.699999 29.249998 30.349998 33.374996 30.074999C 34.749996 36.674995 25.124998 45.199997 25.124998 45.199997"></path><path d="M 56.840748 56.749996C 56.840744 59.913624 59.405373 62.478245 62.568993 62.478245C 65.73262 62.478245 68.297241 59.913624 68.297241 56.749996C 68.297241 53.586369 65.73262 51.021748 62.568993 51.021748C 59.405373 51.021748 56.840744 53.586369 56.840744 56.749996M 58.749245 73.937492L 74.02549 73.937492C 73.111183 70.361282 70.57933 67.417168 67.180321 65.977715C 63.781315 64.538261 59.905106 64.768616 56.700497 66.600494M 17.702749 56.749996C 17.702749 59.913624 20.267374 62.478245 23.430998 62.478245C 26.594624 62.478245 29.159248 59.913624 29.159248 56.749996C 29.159248 53.586369 26.594624 51.021748 23.430998 51.021748C 20.267374 51.021748 17.702749 53.586369 17.702749 56.749996M 27.170998 73.937492L 11.9745 73.937492C 12.885156 70.379051 15.397719 67.445839 18.774105 65.999504C 22.150492 64.553169 26.007275 64.757973 29.2115 66.553749M 56.967247 73.937492C 57.038025 68.887436 54.384396 64.190399 50.022331 61.644726C 45.660271 59.099041 40.265472 59.099041 35.903408 61.644726C 31.541348 64.190399 28.887716 68.887436 28.958498 73.937492ZM 35.690498 43.635246C 39.662189 47.751785 45.767597 48.979439 51.021748 46.717999M 34.543747 47.837246C 34.543747 52.407269 38.248482 56.112 42.818501 56.112C 47.388515 56.112 51.09325 52.407269 51.09325 47.83725C 51.09325 43.267231 47.388515 39.5625 42.818501 39.5625C 38.248482 39.5625 34.543747 43.267231 34.543747 47.83725M 60.836494 45.062496C 60.836494 45.062496 52.586498 36.812496 52.586498 29.937498L 64.961494 29.937498L 42.961498 12.0625L 20.9615 29.937498L 33.336498 29.937498C 33.336498 36.812496 25.086498 45.062496 25.086498 45.062496"></path></g></g></g></g></g></svg>