<?xml version="1.0" encoding="utf-8" standalone="yes"?>
<!DOCTYPE svg PUBLIC "-//W3C//DTD SVG 1.1//EN" "http://www.w3.org/Graphics/SVG/1.1/DTD/svg11.dtd">
<svg width="98" height="98" viewBox="0 0 98 98" style="fill:none;stroke:none;fill-rule:evenodd;clip-rule:evenodd;stroke-linecap:round;stroke-linejoin:round;stroke-miterlimit:1.5;" version="1.1" xmlns="http://www.w3.org/2000/svg" xmlns:xlink="http://www.w3.org/1999/xlink"><g id="items" style="isolation: isolate"><g id="blend" style="mix-blend-mode: normal"><g id="g-root-targ_1upa2ap1d5iya1-fill" data-item-order="0" transform="translate(3, 3)"></g><g id="g-root-targ_1upa2ap1d5iya1-stroke" data-item-order="0" transform="translate(3, 3)"><g id="targ_1upa2ap1d5iya1-stroke" fill="none" stroke-linecap="round" stroke-linejoin="round" stroke-miterlimit="4" stroke="#f4f4f4" stroke-width="2"><g><path d="M 47.800003 13.6C 49 15.1 49 17.5 50.199997 19C 50.5 19.6 50.800003 19.9 51.400002 19.6C 53.5 19 55.900002 19.9 56.5 22C 57.400002 24.099998 57.400002 26.5 55.300003 27.400002C 55 27.700001 55 28.299999 55 28.900002C 55.300003 30.400002 56.199997 31.599998 57.099998 33.099998C 58.600002 32.799999 59.800003 31 61.300003 31C 61.899998 31 62.5 30.700001 62.5 31.299999C 63.699997 33.099998 66.399994 33.700001 68.199997 32.5C 70 31.299999 70.600006 29.5 70.600006 27.400002C 70.600006 26.799999 70.600006 26.200001 71.199997 25.900002C 72.399994 25.599998 73.899994 24.700001 75.100006 24.099998C 74.5 23.5 74.5 22.900002 74.199997 22.299999C 68.5 13 58.600002 12.4 47.800003 13.6M 47.199997 65.800003C 46.900002 61.899998 49.599998 59.199997 52.300003 56.199997C 56.199997 50.800003 61.899998 46 61.300003 39.400002C 59.800003 40 58 39.699997 56.199997 39.400002C 55.900002 39.400002 55.300003 39.699997 55 40.300003C 55 42.699997 52.599998 44.800003 50.199997 44.5C 47.800003 44.199997 46.300003 42.699997 45.099998 40.300003C 45.099998 40 44.5 39.400002 43.900002 39.400002C 42.400002 40 40.599998 39.400002 38.800003 39.400002C 39.099998 41.199997 39.400002 43 38.800003 44.5C 38.800003 45.099998 38.5 45.699997 37.900002 45.699997C 35.5 46 33.099998 48.400002 33.700001 50.800003C 34.599998 53.199997 35.5 55 37.900002 55.900002C 38.5 55.900002 38.800003 56.5 38.800003 57.099998C 38.5 59.800003 38.199997 62.800003 38.800003 65.800003C 41.5 66.399994 44.5 65.199997 47.199997 65.800003M 38.800003 57.099998C 38.800003 56.5 38.199997 56.199997 37.900002 55.900002C 35.800003 54.400002 32.799999 53.199997 33.700001 50.800003C 34.599998 48.699997 35.800003 47.199997 37.900002 46C 38.5 45.699997 38.800003 45.099998 38.800003 44.5C 38.5 43 38.199997 41.199997 38.800003 39.400002C 37 39.699997 35.199997 38.800003 33.700001 39.400002C 33.099998 39.699997 32.5 39.099998 32.5 38.5C 31.900002 36.099998 29.799999 35.199997 27.400002 34.300003C 25.299999 33.700001 22.599998 36.099998 22.599998 38.5C 22.599998 39.099998 22 39.699997 21.4 39.400002C 19.9 39.099998 18.4 39.400002 17.200001 39.400002C 18.1 46 22.599998 50.5 26.200001 56.199997C 28.299999 59.199997 32.5 62.199997 31.299999 65.800003C 33.700001 64.899994 36.400002 65.5 38.800003 65.800003C 39.400002 62.800003 40 59.800003 38.800003 57.099998M 39.699997 23.200001C 39.400002 22.900002 38.800003 22.599998 38.800003 22C 38.800003 19.6 39.099998 17.5 38.800003 15.4C 26.799999 14.5 15.4 25.299999 16.9 37.300003C 17.200001 38.199997 16.9 38.800003 17.200001 39.400002C 18.4 40 19.9 39.400002 21.4 39.400002C 22 39.400002 22.599998 39.099998 22.599998 38.5C 22.599998 36.099998 25 34.900002 27.400002 34.300003C 29.799999 34 32.799999 36.099998 32.5 38.5C 32.200001 39.099998 33.099998 39.400002 33.700001 39.400002C 35.199997 39.699997 37 39.099998 38.800003 39.400002C 38.800003 37.599998 38.5 36.099998 38.800003 34.300003C 38.800003 33.700001 39.400002 33.400002 39.699997 33.099998C 42.099998 32.200001 44.199997 30.400002 43.900002 28C 43.599998 25.599998 42.099998 23.5 39.699997 23.200001M 31.299999 76C 36.400002 77.5 42.099998 76.899994 47.5 76M 31.299999 70.899994C 36.400002 71.800003 42.400002 73 47.5 70.899994M 39.400002 76C 39.699997 77.5 38.800003 79 39.400002 80.5"></path><path d="M 47.713001 13.6C 47.625999 13.645 47.548 13.699 47.461002 13.744L 50.121998 19.032999C 50.345909 19.510324 50.876774 19.761919 51.388 19.632999C 53.460228 19.053722 55.652592 20.022446 56.619522 21.944614C 57.586449 23.866781 57.057369 26.204506 55.357002 27.523001C 54.945076 27.848736 54.819618 28.419559 55.056999 28.888L 57.133003 33.010002L 61.251999 30.937C 61.717072 30.693932 62.288971 30.811823 62.619995 31.219C 63.939766 32.913422 66.272995 33.439022 68.191811 32.47414C 70.110626 31.509258 71.080124 29.322872 70.507004 27.253002C 70.377724 26.740936 70.629211 26.209036 71.106995 25.984001L 75.007004 24.028C 74.761002 23.469999 74.514999 22.911999 74.211998 22.372C 69.319405 12.629199 57.45253 8.700891 47.713005 13.6ZM 47.070999 65.848L 47.070999 65.800003C 47.142044 61.939575 49.061275 58.347717 52.231003 56.143002C 57.600609 52.226082 60.909264 46.08963 61.230999 39.451L 56.347 39.451C 55.758804 39.441727 55.245579 39.848293 55.120003 40.423004C 54.652302 42.786335 52.57917 44.489403 50.170006 44.489403C 47.760834 44.489403 45.687702 42.786335 45.220001 40.423004C 45.093376 39.848946 44.580799 39.442894 43.993 39.451L 38.818001 39.451L 38.818001 44.623001C 38.825806 45.211704 38.418247 45.724602 37.843002 45.849998C 35.479668 46.317703 33.7766 48.390835 33.7766 50.800003C 33.7766 53.209171 35.479668 55.282303 37.843002 55.750004C 38.418442 55.873066 38.826717 56.385612 38.818001 56.973999L 38.818001 65.839005ZM 38.818001 56.983002C 38.826717 56.394615 38.418442 55.882069 37.843002 55.759003C 35.479668 55.291302 33.7766 53.21817 33.7766 50.809002C 33.7766 48.399834 35.479668 46.326702 37.843002 45.859001C 38.418247 45.733601 38.825806 45.220707 38.818001 44.632L 38.818001 39.457001L 33.643002 39.457001C 33.055016 39.464542 32.543125 39.056786 32.419003 38.482002C 31.9513 36.118668 29.878168 34.4156 27.469002 34.4156C 25.059834 34.4156 22.986702 36.118668 22.519001 38.482002C 22.392559 39.056599 21.880306 39.463642 21.292 39.457001L 17.049999 39.457001C 17.372406 46.110744 20.694435 52.259422 26.083 56.176003C 29.264936 58.3792 31.192926 61.978409 31.264 65.848007L 38.818001 65.848ZM 39.790001 23.155001C 39.215946 23.028376 38.809895 22.515797 38.818001 21.927999L 38.818001 15.286C 26.728708 15.458182 17.017694 25.305483 17.014 37.396C 16.980999 38.092003 17.014 38.772999 17.049999 39.457001L 21.289 39.457001C 21.877306 39.463642 22.389559 39.056599 22.515999 38.482002C 22.983702 36.118668 25.056835 34.4156 27.466002 34.4156C 29.875168 34.4156 31.948299 36.118668 32.416 38.482002C 32.540123 39.056786 33.052017 39.464542 33.640003 39.457001L 38.818001 39.457001L 38.818001 34.281998C 38.809895 33.694202 39.215946 33.181625 39.790001 33.055C 42.15897 32.593636 43.868969 30.51848 43.868969 28.105C 43.868969 25.691517 42.15897 23.616365 39.789997 23.154999ZM 31.161999 76.069L 47.412998 76.069M 31.161999 70.983994L 47.412998 70.983994M 39.285999 76.069L 39.285999 80.5"></path></g></g></g></g></g></svg>